{"title":"Bee Movie 2007 {1080p}{5.1}{AAC}{DTS MA Source}{PcTechPaul}","uid":9547901,"size":1828987855,"categoryP":"video","categoryS":"hd___movies","magnet":"?xt=urn:btih:42b5e50179060c53131febd70b1a6ec1f6df9e7d&amp;dn=Bee+Movie+2007+%7B1080p%7D%7B5.1%7D%7BAAC%7D%7BDTS+MA+Source%7D%7BPcTechPaul%7D&amp;tr=udp%3A%2F%2Ftracker.openbittorrent.com%3A80&amp;tr=udp%3A%2F%2Fopen.demonii.com%3A1337&amp;tr=udp%3A%2F%2Ftracker.coppersurfer.tk%3A6969&amp;tr=udp%3A%2F%2Fexodus.desync.com%3A6969","seeders":2,"leechers":2,"uploader":"PCTECHPAUL","files":8,"time":1391129165,"description":"*****************************************************************\nBee Movie (2007)\n*****************************************************************\nEncoded By PcTechPaul\n\n-------------------------------------------------------------------------------\nGeneral Information\n-------------------------------------------------------------------------------\nType.................: Movie\nPlatform.............: Video\nMore Info............:\n\nVideo Format.........: mp4\nVideo Bitrate........: 2284\nResolution...........: 1080p\nColor................: 8 bit\nFPS..................: 23.976\nSource...............: Bluray\nOriginal Format......: NTSC\nGenre................: Animation | Adventure | Comedy\nIMDb Rating..........: 6.2\nMovie Information....: http://www.imdb.com/title/tt0389790/\n\n-------------------------------------------------------------------------------\nRelease Notes\n-------------------------------------------------------------------------------\nComplete name : M:Bee Moviebeemovie.mp4\nFormat : MPEG-4\nFormat profile : Base Media / Version 2\nCodec ID : mp42\nFile size : 1.69 GiB\nDuration : 1h 30mn\nOverall bit rate mode : Variable\nOverall bit rate : 2674 Kbps\n\nVideo\nID : 1\nFormat : AVC\nFormat/Info : Advanced Video Codec\nFormat profile : &lt;a class=&quot;__cf_email__&quot; href=&quot;/cdn-cgi/l/email-protection&quot; data-cfemail=&quot;cb83a2aca38b87fee5fa&quot;&gt;[email&amp;#160;protected]&lt;/a&gt;&lt;script cf-hash='f9e31' type=&quot;text/javascript&quot;&gt;\n/* &lt;![CDATA[ */!function(){try{var t=&quot;currentScript&quot;in document?document.currentScript:function(){for(var t=document.getElementsByTagName(&quot;script&quot;),e=t.length;e--;)if(t[e].getAttribute(&quot;cf-hash&quot;))return t[e]}();if(t&amp;&amp;t.previousSibling){var e,r,n,i,c=t.previousSibling,a=c.getAttribute(&quot;data-cfemail&quot;);if(a){for(e=&quot;&quot;,r=parseInt(a.substr(0,2),16),n=2;a.length-n;n+=2)i=parseInt(a.substr(n,2),16)^r,e+=String.fromCharCode(i);e=document.createTextNode(e),c.parentNode.replaceChild(e,c)}}}catch(u){}}();/* ]]&gt; */&lt;/script&gt;\nFormat settings, CABAC : Yes\nFormat settings, ReFrames : 16 frames\nFormat settings, GOP : M=1, N=3\nCodec ID : avc1\nCodec ID/Info : Advanced Video Coding\nDuration : 1h 30mn\nBit rate : 2 284 Kbps\nWidth : 1 920 pixels\nHeight : 1 080 pixels\nDisplay aspect ratio : 16:9\nFrame rate mode : Variable\nFrame rate : 23.976 fps\nMinimum frame rate : 23.974 fps\nMaximum frame rate : 23.981 fps\nColor space : YUV\nChroma subsampling : 4:2:0\nBit depth : 8 bits\nScan type : Progressive\nBits/(Pixel*Frame) : 0.046\nStream size : 1.45 GiB (85%)\nWriting library : x264 core 130 r2273 b3065e6\nEncoding settings : cabac=1 / ref=16 / deblock=1:0:0 / analyse=0x3:0x113 / me=hex / subme=7 / psy=1 / psy_rd=1.20:0.20 / mixed_ref=1 / me_range=16 / chroma_me=1 / trellis=1 / 8x8dct=1 / cqm=0 / deadzone=21,11 / fast_pskip=1 / chroma_qp_offset=-3 / threads=12 / lookahead_threads=2 / sliced_threads=0 / nr=0 / decimate=1 / interlaced=0 / bluray_compat=0 / constrained_intra=0 / bframes=16 / b_pyramid=2 / b_adapt=1 / b_bias=0 / direct=1 / weightb=1 / open_gop=0 / weightp=2 / keyint=240 / keyint_min=24 / scenecut=40 / intra_refresh=0 / rc_lookahead=40 / rc=2pass / mbtree=1 / bitrate=2284 / ratetol=1.0 / qcomp=0.60 / qpmin=0 / qpmax=69 / qpstep=4 / cplxblur=20.0 / qblur=0.5 / ip_ratio=1.40 / aq=1:1.20\n\nColor primaries : BT.709\nTransfer characteristics : BT.709\nMatrix coefficients : BT.709\n\nAudio\nID : 2\nFormat : AAC\nFormat/Info : Advanced Audio Codec\nFormat profile : LC\nCodec ID : 40\nDuration : 1h 30mn\nBit rate mode : Variable\nBit rate : 384 Kbps\nMaximum bit rate : 696 Kbps\nChannel(s) : 6 channels\nChannel positions : Front: L C R, Side: L R, LFE\nSampling rate : 48.0 KHz\nCompression mode : Lossy\nStream size : 249 MiB (14%)\nLanguage : English ","torrent":{"xt":"urn:btih:42b5e50179060c53131febd70b1a6ec1f6df9e7d","amp;dn":"Bee+Movie+2007+%7B1080p%7D%7B5.1%7D%7BAAC%7D%7BDTS+MA+Source%7D%7BPcTechPaul%7D","amp;tr":["udp%3A%2F%2Ftracker.openbittorrent.com%3A80","udp%3A%2F%2Fopen.demonii.com%3A1337","udp%3A%2F%2Ftracker.coppersurfer.tk%3A6969","udp%3A%2F%2Fexodus.desync.com%3A6969"],"infoHash":"42b5e50179060c53131febd70b1a6ec1f6df9e7d","infoHashBuffer":{"type":"Buffer","data":[66,181,229,1,121,6,12,83,19,31,235,215,11,26,110,193,246,223,158,125]},"announce":[],"urlList":[]}}